PathFileType	4	(x/y/z)	S06_P20_T30
DataRate	CameraRate	NumFrames	NumMarkers	Units	OrigDataRate	OrigDataStartFrame	OrigNumFrames
240	240	6	51	mm	240	261	347
Frame#	Time	Sternum			R.Acromium			L.Acromium			Top.Head			R.ASIS			L.ASIS			R.PSIS			L.PSIS			R.Great.Tro			L.Great.Tro			R.Iliac.Crest			L.Iliac.Crest			V.Sacral			R.Thigh.Upper.Post			R.Thigh.Lower.Ant			R.Thigh.Lower.Post			R.Thigh.Upper.Ant			R.Knee.Lat			R.Knee.Med			R.Shank.Upper.Post			R.Shank.Lower.Ant			R.Shank.Lower.Post			R.Shank.Upper.Ant			R.Ankle.Lat			R.Ankle.Med			R.Heel.Upper			R.Heel.Med			R.Heel.Lat			R.Toe.Lat			R.Toe.Med			R.Toe.Tip			L.Thigh.Upper.Post			L.Thigh.Lower.Ant			L.Thigh.Lower.Post			L.Thigh.Upper.Ant			L.Knee.Lat			L.Knee.Med			L.Shank.Upper.Post			L.Shank.Lower.Ant			L.Shank.Lower.Post			L.Shank.Upper.Ant			L.Ankle.Lat			L.Ankle.Med			L.Heel.Upper			L.Heel.Med			L.Heel.Lat			L.Toe.Lat			L.Toe.Med			L.Toe.Tip			Cervical.Spine			Back			
		X1	Y1	Z1	X2	Y2	Z2	X3	Y3	Z3	X4	Y4	Z4	X5	Y5	Z5	X6	Y6	Z6	X7	Y7	Z7	X8	Y8	Z8	X9	Y9	Z9	X10	Y10	Z10	X11	Y11	Z11	X12	Y12	Z12	X13	Y13	Z13	X14	Y14	Z14	X15	Y15	Z15	X16	Y16	Z16	X17	Y17	Z17	X18	Y18	Z18	X19	Y19	Z19	X20	Y20	Z20	X21	Y21	Z21	X22	Y22	Z22	X23	Y23	Z23	X24	Y24	Z24	X25	Y25	Z25	X26	Y26	Z26	X27	Y27	Z27	X28	Y28	Z28	X29	Y29	Z29	X30	Y30	Z30	X31	Y31	Z31	X32	Y32	Z32	X33	Y33	Z33	X34	Y34	Z34	X35	Y35	Z35	X36	Y36	Z36	X37	Y37	Z37	X38	Y38	Z38	X39	Y39	Z39	X40	Y40	Z40	X41	Y41	Z41	X42	Y42	Z42	X43	Y43	Z43	X44	Y44	Z44	X45	Y45	Z45	X46	Y46	Z46	X47	Y47	Z47	X48	Y48	Z48	X49	Y49	Z49	X50	Y50	Z50	X51	Y51	Z51	

261	1.0833	170.08	1281.4	283.33	62.3	1493.8	456.59	38.672	1493.3	104.59	84.519	1810.8	276.07	103.93	1044.1	412	110.3	1043.7	158.58	-91.987	1074.7	317.8	-91.388	1079.1	236.9	47.984	978.48	463.46	19.158	979.44	104.26	27.758	1125.1	441.44	44.958	1120.1	122.62	-106.84	1042.9	279.73	115.89	737.19	469.8	193.43	673.51	443.54	128.4	649.45	455.81	181.28	763.98	450.54	161.79	545.32	444.37	183.39	547.59	315.49	-16.374	413.99	434.88	-20.795	327.48	408.75	-74.946	365.21	419.09	36.136	377.11	426.39	-147.13	255.93	390.67	-131.06	243.48	301.12	-213.06	283.19	336.46	-231.74	257.81	305.23	-234.82	258.74	370.39	-139.74	112.9	413.91	-112.99	95.931	298.65	-63.335	51.441	345.16	125.99	724.11	126.21	184.15	656.73	191.42	121.7	635.31	147.44	181.29	748.96	166.57	124.11	542.96	164.51	142.51	554.66	283.87	78.018	317.46	174.78	140.86	254.69	182.84	70.563	246.12	192.93	144.22	324.91	170.42	112.25	105.3	196.54	116.7	110.55	288.56	34.796	71.564	237.59	38.703	44.648	270.42	41.384	45.564	208.4	221.68	45.681	176.67	237.58	45.274	296	310.92	60.573	246.68	-5.9572	1546.9	284.32	-72.211	1277.3	287.55
262	1.0875	175.42	1281.7	283.48	67.543	1494.2	456.63	44.348	1493.7	104.56	89.971	1811.3	276	108.94	1044.6	411.99	115.62	1044.1	158.54	-86.789	1075.2	317.59	-86.137	1079.6	236.71	53.093	978.98	463.45	24.359	979.92	104.19	32.729	1125.5	441.35	50.37	1120.5	122.59	-101.67	1043.3	279.51	123.6	738.64	469.58	201.83	675.85	443.16	137.1	651.06	455.45	188.65	766.16	450.25	171.82	547.37	444.01	192.98	549.91	315.03	-5.1751	414.29	434.96	-8.7001	327.71	408.93	-63.209	364.86	419.36	47.727	377.97	426.39	-134.43	255.06	391.13	-118.26	242.29	301.56	-201.12	280.51	336.55	-219.25	254.43	305.6	-222.29	255.97	370.76	-124.1	112.83	415.6	-97.154	95.23	300.48	-46.566	52.306	347.39	129.86	724.14	126.23	187.73	656.42	191.33	125.09	635.36	147.43	185.36	748.66	166.52	127	542.93	164.57	145.57	554.61	283.89	79.497	317.69	174.91	141.98	254.54	182.95	71.645	246.39	193.11	145.74	324.73	170.5	112.47	105.37	196.71	116.88	110.54	288.7	34.836	71.657	237.65	38.715	44.694	270.45	41.429	45.679	208.45	221.72	45.693	176.69	237.67	44.948	296.08	311.03	60.161	246.74	-0.45792	1547.4	284.25	-66.897	1277.9	287.31
263	1.0917	180.75	1282	283.63	72.78	1494.6	456.67	50.019	1494.1	104.53	95.429	1811.7	275.95	113.94	1045.1	411.98	120.94	1044.5	158.52	-81.606	1075.7	317.37	-80.88	1080.1	236.52	58.19	979.52	463.43	29.562	980.4	104.13	37.696	1126	441.26	55.792	1121	122.58	-96.499	1043.8	279.28	131.23	740.11	469.3	210.12	678.19	442.7	145.69	652.69	455.04	195.94	768.34	449.9	181.71	549.46	443.58	202.43	552.24	314.52	5.9976	414.44	435.03	3.4935	327.78	409.13	-51.416	364.28	419.61	59.341	378.73	426.39	-121.51	253.83	391.62	-105.23	240.77	302.02	-188.96	277.38	336.68	-206.51	250.6	306.03	-209.52	252.73	371.18	-108.09	112.48	417.3	-80.915	94.307	302.31	-29.364	53.072	349.61	133.72	724.18	126.26	191.29	656.11	191.24	128.45	635.42	147.42	189.4	748.34	166.48	129.83	542.9	164.63	148.59	554.56	283.9	80.95	317.92	175.02	143.07	254.4	183.04	72.706	246.65	193.26	147.23	324.56	170.58	112.69	105.43	196.85	117.05	110.55	288.83	34.877	71.751	237.71	38.724	44.744	270.48	41.472	45.794	208.5	221.76	45.703	176.69	237.76	44.659	296.15	311.13	59.789	246.79	5.0344	1547.9	284.18	-61.588	1278.4	287.06
264	1.0958	186.08	1282.4	283.79	78.01	1495	456.7	55.684	1494.5	104.51	100.89	1812.2	275.91	118.95	1045.6	411.99	126.28	1045	158.52	-76.43	1076.2	317.16	-75.617	1080.6	236.34	63.281	980.09	463.41	34.77	980.9	104.08	42.663	1126.5	441.18	61.228	1121.6	122.58	-91.317	1044.3	279.07	138.79	741.6	468.99	218.3	680.54	442.17	154.18	654.34	454.58	203.14	770.51	449.51	191.44	551.55	443.1	211.74	554.57	313.96	17.141	414.44	435.07	15.78	327.68	409.35	-39.57	363.48	419.83	70.972	379.39	426.4	-108.37	252.26	392.11	-91.956	238.94	302.5	-176.58	273.83	336.84	-193.5	246.32	306.5	-196.49	249.05	371.64	-91.722	111.86	419.02	-64.292	93.177	304.14	-11.764	53.738	351.81	137.55	724.22	126.31	194.81	655.8	191.15	131.79	635.48	147.4	193.42	748.02	166.47	132.62	542.88	164.69	151.57	554.5	283.91	82.379	318.14	175.08	144.15	254.27	183.13	73.75	246.91	193.38	148.69	324.4	170.64	112.89	105.51	196.98	117.2	110.56	288.93	34.919	71.846	237.77	38.731	44.799	270.5	41.512	45.909	208.54	221.8	45.711	176.7	237.84	44.403	296.2	311.23	59.452	246.83	10.519	1548.4	284.12	-56.283	1279	286.82
265	1.1	191.4	1282.8	283.96	83.231	1495.4	456.74	61.345	1494.9	104.49	106.36	1812.7	275.89	123.96	1046.2	412.01	131.63	1045.4	158.54	-71.257	1076.7	316.95	-70.345	1081.1	236.17	68.37	980.68	463.4	39.982	981.42	104.03	47.632	1127	441.1	66.681	1122.1	122.59	-86.126	1044.9	278.86	146.27	743.1	468.65	226.36	682.87	441.59	162.56	656.01	454.07	210.26	772.65	449.08	201.01	553.66	442.57	220.91	556.88	313.36	28.254	414.29	435.11	28.153	327.42	409.59	-27.675	362.45	420.03	82.613	379.96	426.42	-95.023	250.35	392.63	-78.452	236.8	303.02	-163.98	269.87	337.06	-180.22	241.65	307.02	-183.21	244.95	372.15	-75.027	111	420.75	-47.309	91.858	305.96	6.1992	54.305	353.99	141.37	724.26	126.36	198.31	655.47	191.06	135.11	635.56	147.37	197.42	747.7	166.47	135.36	542.86	164.74	154.51	554.43	283.91	83.789	318.36	175.12	145.21	254.14	183.21	74.779	247.16	193.48	150.13	324.24	170.69	113.09	105.58	197.09	117.34	110.59	289.02	34.962	71.942	237.82	38.737	44.859	270.52	41.552	46.024	208.58	221.83	45.716	176.69	237.92	44.175	296.25	311.32	59.144	246.86	15.996	1548.9	284.06	-50.982	1279.6	286.59
266	1.1042	196.71	1283.2	284.15	88.443	1495.9	456.77	67.004	1495.4	104.48	111.84	1813.2	275.87	128.97	1046.8	412.03	136.99	1045.9	158.59	-66.079	1077.3	316.74	-65.064	1081.7	236	73.461	981.3	463.39	45.198	981.95	103.99	52.605	1127.5	441.03	72.152	1122.7	122.62	-80.924	1045.4	278.65	153.67	744.6	468.26	234.3	685.17	440.93	170.82	657.67	453.53	217.3	774.76	448.6	210.43	555.76	441.99	229.93	559.18	312.72	39.334	413.99	435.12	40.607	327.01	409.86	-15.732	361.22	420.21	94.259	380.42	426.46	-81.468	248.13	393.16	-64.717	234.38	303.56	-151.14	265.54	337.32	-166.67	236.6	307.58	-169.66	240.46	372.71	-58.029	109.91	422.48	-29.987	90.369	307.77	24.49	54.777	356.14	145.19	724.31	126.42	201.77	655.15	190.99	138.4	635.63	147.34	201.4	747.37	166.48	138.06	542.84	164.78	157.39	554.34	283.91	85.18	318.58	175.13	146.26	254.03	183.28	75.796	247.42	193.54	151.54	324.09	170.73	113.27	105.66	197.19	117.47	110.62	289.09	35.007	72.038	237.86	38.744	44.922	270.54	41.591	46.14	208.61	221.87	45.717	176.69	238	43.972	296.28	311.4	58.862	246.88	21.463	1549.4	284	-45.682	1280.1	286.35
